# xmcd CD database file
#
# Track frame offsets:
#	150
#	24632
#	55966
#	77938
#	116758
#	139929
#	160529
#	180876
#	194395
#	221496
#	244378
#	267077
#
# Disc length: 3842 seconds
#
# Revision: 0
# Processed by: cddbd v1.5.2PL0 Copyright (c) Steve Scherf et al.
# Submitted via: CDex 1.51
#
DISCID=a60f000c
DTITLE=Karl Olandersson - Plays standards
DYEAR=2010
DGENRE=Jazz
TTITLE0=The groove merchant
TTITLE1=East of the sun
TTITLE2=Cochise
TTITLE3=You don´t know what love is
TTITLE4=Stardust
TTITLE5=Just friends
TTITLE6=Donna Lee
TTITLE7=If i where a bell
TTITLE8=It might as well be spring
TTITLE9=Caravan
TTITLE10=In a mellow tone
TTITLE11=I can´t get started
EXTD=YEAR: 2010
EXTT0=
EXTT1=
EXTT2=
EXTT3=
EXTT4=
EXTT5=
EXTT6=
EXTT7=
EXTT8=
EXTT9=
EXTT10=
EXTT11=
PLAYORDER=
